<svg width="33" height="34" viewBox="0 0 33 34" fill="none" xmlns="http://www.w3.org/2000/svg">
<path d="M24.1974 21.2939H22.6682L22.1262 20.7712C24.4491 18.0613 25.6492 14.3641 24.9911 10.4346C24.0813 5.05338 19.5905 0.756133 14.1705 0.0979958C5.98251 -0.908566 -0.908566 5.98251 0.0979958 14.1705C0.756133 19.5905 5.05338 24.0813 10.4346 24.9911C14.3641 25.6492 18.0613 24.4491 20.7712 22.1262L21.2939 22.6682V24.1974L29.5206 32.4241C30.3142 33.2178 31.6111 33.2178 32.4048 32.4241C33.1984 31.6305 33.1984 30.3336 32.4048 29.5399L24.1974 21.2939ZM12.5832 21.2939C7.76336 21.2939 3.8726 17.4031 3.8726 12.5832C3.8726 7.76335 7.76336 3.8726 12.5832 3.8726C17.4031 3.8726 21.2939 7.76335 21.2939 12.5832C21.2939 17.4031 17.4031 21.2939 12.5832 21.2939Z" fill="#166306"/>
</svg>
